<svg xmlns="http://www.w3.org/2000/svg"><symbol fill="none" id="sprite-basket" viewBox="0 0 21 25"><title>basket</title><path fill-rule="evenodd" clip-rule="evenodd" d="M20 5H1v19h19V5zM0 4v21h21V4H0z" fill="#fff"/><path fill-rule="evenodd" clip-rule="evenodd" d="M10.51 1.5c-2.925 0-5.444 2.88-5.444 6.632h-1C4.066 4.006 6.87.5 10.51.5s6.444 3.506 6.444 7.632h-1c0-3.752-2.519-6.632-5.444-6.632z" fill="#fff"/></symbol><symbol fill="none" id="sprite-download" viewBox="0 0 29 21"><title>download</title><path fill-rule="evenodd" clip-rule="evenodd" d="M1.5 19.5V0h-1v20.5h28V0h-1v19.5h-26z" fill="#fff"/><path fill-rule="evenodd" clip-rule="evenodd" d="M18.325 6.38l-3.5 3h-.65l-3.5-3 .65-.76L14 7.913V0h1v7.913l2.674-2.293.651.76z" fill="#fff"/></symbol><symbol fill="none" id="sprite-facebook" viewBox="0 0 7 16"><title>facebook</title><path d="M4.654 3.528v1.6H7L6.702 8H4.654v8H1.452V8H0V5.128h1.452v-1.6S1.192.492 3.798 0H7v2.585H5.548c0-.041-.82-.082-.894.943z" fill="#fff"/></symbol><symbol fill="none" id="sprite-favorite" viewBox="0 0 27 24"><title>favorite</title><path d="M13.357 23l-.068-.045a59.308 59.308 0 01-5.536-4.203c-3.784-3.254-5.945-6.074-6.425-8.376A7.172 7.172 0 011 8.158a7.3 7.3 0 011.312-4.112A7.133 7.133 0 015.701 1.43a7.02 7.02 0 014.254-.186 7.108 7.108 0 013.597 2.312 7.078 7.078 0 014.15-2.345 7.014 7.014 0 014.678.833v0a7.199 7.199 0 012.664 2.685A7.337 7.337 0 0126 8.414a7.212 7.212 0 01-.375 2.223c-.526 2.281-2.75 5.052-6.583 8.223a58.456 58.456 0 01-5.615 4.095l-.07.045zM8.117 1.264A6.808 6.808 0 003.292 3.28a7.015 7.015 0 00-1.714 7.026c1.076 5.154 10.86 11.768 11.781 12.378.935-.592 10.839-6.996 12.016-12.122a7.04 7.04 0 00-.087-4.718 6.912 6.912 0 00-3.038-3.571v0a6.761 6.761 0 00-4.575-.786 6.827 6.827 0 00-4.019 2.356l-.101.121-.1-.121a6.88 6.88 0 00-2.35-1.889 6.778 6.778 0 00-2.92-.691h-.068z" fill="#fff" stroke="#fff"/></symbol><symbol fill="none" id="sprite-filters" viewBox="0 0 25 24"><title>filters</title><path fill-rule="evenodd" clip-rule="evenodd" d="M2 24V0h1v24H2z" fill="#fff"/><path fill-rule="evenodd" clip-rule="evenodd" d="M0 3h5v1H0V3zm22 21V0h1v24h-1z" fill="#fff"/><path fill-rule="evenodd" clip-rule="evenodd" d="M20 20h5v1h-5v-1zm-8 4V0h1v24h-1z" fill="#fff"/><path fill-rule="evenodd" clip-rule="evenodd" d="M10 11h5v1h-5v-1z" fill="#fff"/></symbol><symbol fill="none" id="sprite-h" viewBox="0 0 12 14"><title>h</title><path d="M7.497 14H12V6.048L2.986 3.352V0H0v14h4.503V9.592h2.994V14z" fill="#fff"/></symbol><symbol fill="none" id="sprite-inst" viewBox="0 0 14 14"><title>inst</title><path d="M7.018 4.632a2.35 2.35 0 100 4.702 2.35 2.35 0 000-4.702z" fill="#fff"/><path d="M9.473 0H4.561C2.071 0 0 2.07 0 4.561v4.877C0 11.964 2.07 14 4.561 14h4.877C11.964 14 14 11.93 14 9.438V4.561C14.035 2.071 11.964 0 9.473 0zM7.017 10.666c-2 0-3.649-1.614-3.649-3.649a3.646 3.646 0 013.65-3.649c2 0 3.648 1.614 3.648 3.65 0 2-1.614 3.648-3.649 3.648zm3.58-6.42a.891.891 0 01-.878-.878c0-.456.421-.912.877-.912.491 0 .877.421.877.877 0 .527-.386.912-.877.912z" fill="#fff"/></symbol><symbol fill="none" id="sprite-menu" viewBox="0 0 35 15"><title>menu</title><path fill-rule="evenodd" clip-rule="evenodd" d="M35 1H0V0h35v1zm0 14H0v-1h35v1z" fill="#fff"/></symbol><symbol id="sprite-percent_icon" viewBox="0 0 20.004 20.004"><title>percent_icon</title><path d="M1.897 19.142a1.035 1.035 0 01-.732-1.766l16.21-16.21a1.035 1.035 0 011.464 1.463l-16.21 16.21a1.03 1.03 0 01-.732.303zm18.107-3.966a4.829 4.829 0 10-4.828 4.828 4.834 4.834 0 004.828-4.828zm-2.07 0a2.76 2.76 0 11-2.758-2.76 2.762 2.762 0 012.759 2.76zM9.658 4.829A4.829 4.829 0 104.83 9.657 4.834 4.834 0 009.657 4.83zm-2.07 0a2.76 2.76 0 11-2.758-2.76 2.762 2.762 0 012.759 2.76z" fill="#e5a359"/></symbol><symbol fill="none" id="sprite-search" viewBox="0 0 35 35"><title>search</title><path fill-rule="evenodd" clip-rule="evenodd" d="M15.193 19.624l-8.23 8.23-.707-.707 8.23-8.23.707.707z" fill="#fff"/><path fill-rule="evenodd" clip-rule="evenodd" d="M14.95 19.233a8.4 8.4 0 1011.88-11.88 8.4 8.4 0 00-11.88 11.88zm-.707.707A9.4 9.4 0 1027.537 6.646 9.4 9.4 0 0014.243 19.94z" fill="#fff"/></symbol><symbol id="sprite-twitter" viewBox="0 0 32 22"><title>twitter</title><path d="M20.029 1.021C20.722.502 21.525.101 22.396 0c-.121.517-.614.786-1.046 1.021.65-.19 1.285-.472 1.97-.519.185-.006.444.001.51.212.098.262-.17.467-.374.576-.748.383-1.612.439-2.373.792 1.563-.146 3.124.456 4.311 1.448 1.415 1.155 2.352 2.827 2.691 4.605 1.252.333 2.604.092 3.778-.403-.59 1.326-2.093 1.931-3.468 2.049 1.143.427 2.398.5 3.604.373-.957 1.05-2.437 1.46-3.827 1.428-.578 2.343-1.954 4.445-3.739 6.065-3.473 3.117-8.282 4.611-12.931 4.314C7.036 21.692 2.639 19.509 0 15.887c.23.133.424.317.645.466 2.043 1.466 4.763 1.931 7.193 1.277 1.475-.378 2.812-1.195 3.881-2.262-.683.045-1.443-.075-1.939-.586-.31-.292-.437-.772-.25-1.163.225-.494.725-.775 1.199-.996-1.551.219-3.241-.497-3.956-1.918.524-.619 1.361-.817 2.138-.878-.904-.261-1.834-.581-2.52-1.251a3.325 3.325 0 01-1.006-1.942c.64-.118 1.284-.263 1.941-.236-1.49-.768-2.85-2.231-2.731-4 2.824 1.021 5.601 2.186 8.254 3.591.928.506 1.7 1.237 2.458 1.958.734-1.892 1.524-3.792 2.72-5.451.64-.873 1.396-1.685 2.324-2.261-.038.288-.185.537-.322.786z" fill="#4da7de"/></symbol><symbol fill="none" id="sprite-user" viewBox="0 0 21 24"><title>user</title><path fill-rule="evenodd" clip-rule="evenodd" d="M20 23v-1.5a9.5 9.5 0 00-19 0V23h19zm-9.5-12C4.701 11 0 15.701 0 21.5V24h21v-2.5C21 15.701 16.299 11 10.5 11zm0-3a3.5 3.5 0 100-7 3.5 3.5 0 000 7zm0 1a4.5 4.5 0 100-9 4.5 4.5 0 000 9z" fill="#fff"/></symbol><symbol fill="none" id="sprite-vk" viewBox="0 0 19 11"><title>vk</title><path d="M9.293 10.937h1.147s.365-.053.521-.211c.156-.159.156-.529.156-.529s0-1.532.678-1.743c.677-.212 1.615 1.48 2.553 2.166.73.476 1.251.37 1.251.37l2.554-.053s1.303-.105.677-1.162c-.052-.106-.365-.793-1.876-2.22-1.563-1.479-1.355-1.267.521-3.856 1.147-1.586 1.616-2.537 1.46-2.96-.157-.37-.99-.263-.99-.263h-2.867s-.208-.053-.365.052c-.156.106-.26.317-.26.317s-.47 1.216-1.043 2.272c-1.25 2.167-1.771 2.325-1.98 2.167-.469-.265-.365-1.216-.365-1.902 0-2.114.313-3.012-.625-3.223C10.127.106 9.919.053 9.085 0 8.043 0 7.209 0 6.74.264c-.313.159-.573.529-.417.529.208 0 .625.105.834.422.313.423.26 1.321.26 1.321s.157 2.483-.416 2.8c-.365.212-.886-.21-2.033-2.219a22.859 22.859 0 01-1.042-2.113s0-.211-.156-.317C3.56.528 3.353.528 3.353.528H.643S.226.528.069.74c-.156.158 0 .475 0 .475s2.137 5.02 4.534 7.556c2.19 2.325 4.69 2.166 4.69 2.166z" fill="#fff"/></symbol></svg>