<svg width="27" height="24" viewBox="0 0 27 24" fill="none" xmlns="http://www.w3.org/2000/svg">
<path d="M13.3568 23L13.2891 22.9551C11.3646 21.6647 9.51603 20.2614 7.7528 18.7522C3.96903 15.4982 1.80763 12.6778 1.32847 10.3755C1.10362 9.65864 0.992851 8.90998 1.00036 8.15772C1.01425 6.68347 1.47202 5.24881 2.31223 4.04622C3.15245 2.84364 4.33491 1.93066 5.70096 1.42981C7.06702 0.928954 8.55131 0.864176 9.95467 1.24417C11.358 1.62416 12.6133 2.43074 13.5521 3.55569C14.6294 2.31383 16.0946 1.4858 17.7019 1.2105C19.3093 0.935205 20.961 1.22939 22.38 2.0437V2.0437C23.488 2.68168 24.4078 3.60868 25.0442 4.72874C25.6807 5.84879 26.0105 7.12117 25.9997 8.41412C25.992 9.17066 25.8654 9.92109 25.6248 10.6372C25.0987 12.9184 22.8748 15.6886 19.0416 18.8605C17.2513 20.3367 15.3766 21.7039 13.4271 22.9551L13.3568 23ZM8.11737 1.26392C6.30987 1.26454 4.57566 1.98932 3.29173 3.28071C2.0078 4.5721 1.27792 6.32572 1.26077 8.16036C1.25311 8.88845 1.36037 9.61309 1.57847 10.3067C2.65396 15.4612 12.4376 22.0748 13.3594 22.6854C14.2943 22.0933 24.1977 15.6886 25.3748 10.5631C25.8895 9.02847 25.8588 7.35932 25.2881 5.8452C24.7173 4.33108 23.6424 3.06752 22.2498 2.27367V2.27367C20.8612 1.4795 19.2432 1.20179 17.6746 1.4884C16.106 1.77501 14.6849 2.60798 13.6563 3.84381L13.5547 3.9654L13.4558 3.84381C12.8189 3.046 12.0161 2.401 11.1049 1.95499C10.1937 1.50898 9.19665 1.27299 8.18508 1.26392H8.11737Z" fill="white" stroke="white"/>
</svg>
