<svg width="14" height="14" viewBox="0 0 14 14" fill="none" xmlns="http://www.w3.org/2000/svg">
<path d="M7.01755 4.63184C5.71935 4.63184 4.66675 5.68443 4.66675 6.98264C4.66675 8.28084 5.71935 9.33344 7.01755 9.33344C8.31576 9.33344 9.36836 8.28084 9.36836 6.98264C9.36836 5.68443 8.31576 4.63184 7.01755 4.63184Z" fill="white"/>
<path d="M9.47339 0H4.56126C2.07011 0 0 2.07011 0 4.56126V9.4383C0 11.9645 2.07011 13.9996 4.56126 13.9996H9.4383C11.9645 13.9996 13.9996 11.9294 13.9996 9.4383V4.56126C14.0346 2.07011 11.9645 0 9.47339 0ZM7.01732 10.6663C5.01739 10.6663 3.36832 9.05235 3.36832 7.01732C3.36832 4.9823 5.01739 3.36831 7.01732 3.36831C9.01726 3.36831 10.6663 4.9823 10.6663 7.01732C10.6663 9.01726 9.05235 10.6663 7.01732 10.6663ZM10.5962 4.24548C10.1049 4.24548 9.71899 3.82444 9.71899 3.36831C9.71899 2.91219 10.14 2.45606 10.5962 2.45606C11.0874 2.45606 11.4733 2.8771 11.4733 3.33323C11.4733 3.85953 11.0874 4.24548 10.5962 4.24548Z" fill="white"/>
</svg>
