<svg width="35" height="35" viewBox="0 0 35 35" fill="none" xmlns="http://www.w3.org/2000/svg">
<path fill-rule="evenodd" clip-rule="evenodd" d="M15.1929 19.6242L6.96345 27.8536L6.25635 27.1465L14.4858 18.9171L15.1929 19.6242Z" fill="white"/>
<path fill-rule="evenodd" clip-rule="evenodd" d="M14.9504 19.2334C18.2308 22.5138 23.5494 22.5138 26.8299 19.2334C30.1103 15.953 30.1103 10.6344 26.8299 7.35395C23.5494 4.07352 18.2308 4.07352 14.9504 7.35395C11.67 10.6344 11.67 15.953 14.9504 19.2334ZM14.2433 19.9405C17.9142 23.6115 23.866 23.6115 27.537 19.9405C31.2079 16.2696 31.2079 10.3178 27.537 6.64684C23.866 2.97589 17.9142 2.97589 14.2433 6.64684C10.5723 10.3178 10.5723 16.2696 14.2433 19.9405Z" fill="white"/>
</svg>
