<svg width="21" height="24" viewBox="0 0 21 24" fill="none" xmlns="http://www.w3.org/2000/svg">
<path fill-rule="evenodd" clip-rule="evenodd" d="M20 23V21.5C20 16.2533 15.7467 12 10.5 12C5.25329 12 1 16.2533 1 21.5V23H20ZM10.5 11C4.701 11 0 15.701 0 21.5V24H21V21.5C21 15.701 16.299 11 10.5 11Z" fill="white"/>
<path fill-rule="evenodd" clip-rule="evenodd" d="M10.4998 7.99999C12.4327 7.99999 13.9997 6.43299 13.9997 4.5C13.9997 2.567 12.4327 1 10.4998 1C8.56676 1 6.99976 2.567 6.99976 4.5C6.99976 6.43299 8.56676 7.99999 10.4998 7.99999ZM10.4998 8.99999C12.985 8.99999 14.9997 6.98527 14.9997 4.5C14.9997 2.01472 12.985 0 10.4998 0C8.01447 0 5.99976 2.01472 5.99976 4.5C5.99976 6.98527 8.01447 8.99999 10.4998 8.99999Z" fill="white"/>
</svg>
