<svg width="19" height="11" viewBox="0 0 19 11" fill="none" xmlns="http://www.w3.org/2000/svg">
<path d="M9.29348 10.9372H10.44C10.44 10.9372 10.8048 10.8843 10.9611 10.7258C11.1174 10.5673 11.1174 10.1974 11.1174 10.1974C11.1174 10.1974 11.1174 8.66519 11.7949 8.45384C12.4724 8.2425 13.4104 9.93327 14.3484 10.6201C15.078 11.0957 15.5992 10.99 15.5992 10.99L18.1527 10.9372C18.1527 10.9372 19.4555 10.8315 18.8302 9.77476C18.778 9.66908 18.4654 8.98221 16.9541 7.55562C15.3907 6.0762 15.5992 6.28755 17.4752 3.69856C18.6217 2.11346 19.0907 1.1624 18.9344 0.739711C18.778 0.369855 17.9442 0.475528 17.9442 0.475528H15.078C15.078 0.475528 14.8696 0.422692 14.7132 0.528365C14.5569 0.634038 14.4527 0.845384 14.4527 0.845384C14.4527 0.845384 13.9837 2.06062 13.4104 3.11735C12.1597 5.28365 11.6386 5.44216 11.4301 5.28365C10.9611 5.01947 11.0653 4.06841 11.0653 3.38154C11.0653 1.26808 11.378 0.369855 10.44 0.158509C10.1273 0.105673 9.91884 0.0528365 9.08503 0C8.04277 0 7.20896 0 6.73995 0.264183C6.42727 0.422692 6.1667 0.792548 6.32304 0.792548C6.53149 0.792548 6.9484 0.89822 7.15685 1.21524C7.46953 1.63793 7.41741 2.53615 7.41741 2.53615C7.41741 2.53615 7.57375 5.01947 7.00051 5.33649C6.63572 5.54783 6.11459 5.12514 4.9681 3.11735C4.39486 2.11346 3.92584 1.00389 3.92584 1.00389C3.92584 1.00389 3.92584 0.792547 3.76951 0.686874C3.56105 0.528365 3.3526 0.528365 3.3526 0.528365H0.642727C0.642727 0.528365 0.225823 0.528365 0.069484 0.739711C-0.086855 0.898221 0.069484 1.21524 0.069484 1.21524C0.069484 1.21524 2.20612 6.23471 4.60331 8.77086C6.79206 11.0957 9.29348 10.9372 9.29348 10.9372Z" fill="white"/>
</svg>
